<?xml version="1.0" encoding="utf-8"?>
<!-- Generator: Adobe Illustrator 18.0.0, SVG Export Plug-In . SVG Version: 6.00 Build 0)  -->
<!DOCTYPE svg PUBLIC "-//W3C//DTD SVG 1.1//EN" "http://www.w3.org/Graphics/SVG/1.1/DTD/svg11.dtd">
<svg version="1.1" id="Calque_1_-_copie_2" xmlns="http://www.w3.org/2000/svg" xmlns:xlink="http://www.w3.org/1999/xlink" x="0px"
	 y="0px" viewBox="0 0 960 560" enable-background="new 0 0 960 560" xml:space="preserve">
<g>
	<path d="M544.3,376.7c22.9,5.7,36.7-28.6,37.8-42.4c1.1-10.3,0-49.3-2.3-63c-2.3-12.6-3.4-25.2-4.6-36.7c0-18.3,0-35.5,2.3-52.7
		c1.1-22.9,3.4-44.7,5.7-67.6c1.1-9.2,0-16-3.4-20.6c-3.4-5.7-22.9-9.2-32.1-10.3c-8-1.1-16,1.1-22.9,4.6
		c-6.9,3.4-11.5,10.3-12.6,19.5c-2.3,30.9-2.3,61.9,2.3,92.8c1.1,8,1.1,14.9,0,22.9c0,4.6,0,9.2-1.1,13.7c0,4.6,0,8-4.6,11.5
		c-4.6,3.4-10.3,4.6-16,5.7c-9.2,1.1-18.3,3.4-27.5,2.3c-4.6,0-11.5,0-14.9-3.4c-2.3-2.3-1.1-6.9-1.1-10.3c0-8,0-16-1.1-22.9
		c-2.3-16-26.3-42.4-55-34.4c-14.9,4.6-13.7,42.4-16,55c-1.1,10.3,0,35.5,2.3,49.3c2.3,12.6,3.4,25.2,4.6,36.7
		c0,18.3,0,35.5-2.3,52.7c-1.1,22.9-3.4,44.7-5.7,67.6c-1.1,9.2,0,16,3.4,20.6c3.4,5.7,10.3,9.2,18.3,10.3c8,1.1,29.8-1.1,36.7-4.6
		c6.9-3.4,11.5-10.3,12.6-19.5c2.3-27.5,2.3-56.1-1.1-84.8c-1.1-6.9-1.1-13.7-1.1-20.6c0-5.7-1.1-13.7,3.4-19.5
		c2.3-3.4,6.9-4.6,10.3-5.7c5.7-1.1,10.3-2.3,16-3.4c8-1.1,17.2-1.1,25.2,0c3.4,0,5.7,1.1,9.2,3.4c4.6,4.6,3.4,11.5,5.7,17.2
		c2.3,6.9,4.6,12.6,8,19.5C527.1,367.5,535.1,374.4,544.3,376.7z"/>
	<path d="M587.8,420.2c-3.4-6.9-10.3-10.3-19.5-11.5c-9.2,0-29.8,2.3-36.7,6.9c-6.9,5.7-10.3,13.7-11.5,21.8c-1.1,8-1.1,16,0,24.1
		c1.1,9.2,5.7,13.7,14.9,14.9c10.3,0,33.2-2.3,41.2-8c8-6.9,12.6-14.9,13.7-25.2C592.4,436.2,591.2,428.2,587.8,420.2z"/>
	<path d="M428.6,144.1c6.9-5.7,10.3-13.7,11.5-21.8c1.1-8,2.3-18.3-1.1-26.3c-4.6-9.2-18.3-11.5-27.5-13.7c-10.3,0-19.5,2.3-28.6,8
		c-8,6.9-12.6,14.9-13.7,25.2c-1.1,8,1.1,16,4.6,24.1c3.4,6.9,10.3,10.3,19.5,11.5C401.1,152.1,421.7,148.7,428.6,144.1z"/>
</g>
</svg>
