<?xml version="1.0" encoding="utf-8"?>
<!-- Generator: Adobe Illustrator 17.1.0, SVG Export Plug-In . SVG Version: 6.00 Build 0)  -->
<!DOCTYPE svg PUBLIC "-//W3C//DTD SVG 1.1//EN" "http://www.w3.org/Graphics/SVG/1.1/DTD/svg11.dtd">
<svg version="1.1" id="Layer_1" xmlns="http://www.w3.org/2000/svg" xmlns:xlink="http://www.w3.org/1999/xlink" x="0px" y="0px"
	 viewBox="0 0 386.1 400" enable-background="new 0 0 386.1 400" xml:space="preserve">
<path fill-rule="evenodd" clip-rule="evenodd" fill="#000101" d="M196.1,26.2c-96.6,0-175,78.4-175,175s78.4,175,175,175
	c96.6,0,175-78.4,175-175S292.8,26.2,196.1,26.2z M197.1,352.9c-82.8,0-150-67.2-150-150s67.2-150,150-150c82.8,0,150,67.2,150,150
	S280,352.9,197.1,352.9z"/>
<path d="M97.8,130.2h7.3c4.4,0,7.5,0.5,9.2,1.5c1.7,1,2.9,2.5,3.7,4.5c0.8,2,1.1,5.9,1.1,11.8v108.5c0,6.2-0.3,10.1-1,11.7
	c-0.8,2-2,3.4-3.7,4.3c-1.7,0.9-5.1,1.4-10.1,1.4h-6.5v27.5h86.4v-27.5H177c-4.7,0-7.9-0.4-9.5-1.2c-1.6-0.8-2.8-2.1-3.6-4
	c-0.8-1.9-1.3-5.3-1.3-10.2v-20l26.8-26.1l31.1,49.8c2.6,4.3,3.9,7,3.9,8.1c0,1-0.7,1.9-2.1,2.6c-1.4,0.7-5.4,1-11.9,1h-3.6v27.5
	h89.3v-27.5H293c-5.1,0-9-0.9-11.7-2.6c-2-1.2-5.2-5.2-9.6-11.8l-51-77.3l42.8-41.5c3.3-3.2,6-5.6,8.1-7c2.1-1.4,3.8-2.3,5.3-2.8
	c1.4-0.4,4-0.6,7.7-0.6h2.7v-27.5h-80.1v27.5h7.1c4,0,6.4,0.3,7.4,1c1,0.7,1.5,1.7,1.5,3c0,0.7-0.3,1.4-0.8,2.3
	c-0.5,0.9-2,2.6-4.4,5.2l-55.2,57.5v-52.9c0-5.2,0.4-8.8,1.3-10.7c0.9-1.9,2.3-3.4,4.4-4.4c1.3-0.7,4.7-1,10.1-1h5.7v-27.5H97.8
	V130.2z"/>
<path fill="#000101" d="M294.8,130"/>
<polyline fill="#000101" points="286.1,102.7 294.5,102.7 294.5,130 286.1,130.2 "/>
</svg>
