<?xml version="1.0" encoding="UTF-8" standalone="no"?>
<svg
   xmlns:dc="http://purl.org/dc/elements/1.1/"
   xmlns:cc="http://creativecommons.org/ns#"
   xmlns:rdf="http://www.w3.org/1999/02/22-rdf-syntax-ns#"
   xmlns:svg="http://www.w3.org/2000/svg"
   xmlns="http://www.w3.org/2000/svg"
   viewBox="0 0 1748.9625 460.6875"
   height="460.6875"
   width="1748.9625"
   xml:space="preserve"
   version="1.1"
   id="svg2"><metadata
     id="metadata8"><rdf:RDF><cc:Work
         rdf:about=""><dc:format>image/svg+xml</dc:format><dc:type
           rdf:resource="http://purl.org/dc/dcmitype/StillImage" /></cc:Work></rdf:RDF></metadata><defs
     id="defs6"><clipPath
       id="clipPath18"
       clipPathUnits="userSpaceOnUse"><path
         id="path20"
         d="m 0,0 13991.7,0 0,3685 L 0,3685 0,0 Z" /></clipPath></defs><g
     transform="matrix(1.25,0,0,-1.25,0,460.6875)"
     id="g10"><g
       transform="scale(0.1,0.1)"
       id="g12"><g
         id="g14"><g
           clip-path="url(#clipPath18)"
           id="g16"><path
             id="path22"
             style="fill:#d9292a;fill-opacity:1;fill-rule:nonzero;stroke:none"
             d="m 8771.7,3669.75 c -210.69,60.6 -430.45,-61.58 -490.87,-272.9 L 7827.29,1810.42 7373.75,3396.85 c -48.53,169.75 -200.14,280.09 -367.02,286.27 -8.43,0.77 -16.68,0.32 -25.06,0.54 -8.39,-0.22 -16.64,0.23 -25.07,-0.54 -166.88,-6.18 -318.49,-116.52 -367.02,-286.27 L 6137.93,1817.01 5686.27,3396.85 c -60.41,211.32 -280.18,333.5 -490.87,272.9 -210.69,-60.59 -332.5,-281.02 -272.09,-492.34 L 5749.26,288.328 C 5797.03,121.219 5944.71,11.5508 6108.5,2.23047 c 9.91,-0.92969 19.59,-0.46094 29.43,-0.64063 9.83,0.17969 19.52,-0.28906 29.42,0.64063 163.79,9.32033 311.47,118.98853 359.24,286.09753 L 6981.67,1880.13 7436.74,288.328 C 7484.93,119.77 7634.77,9.73828 7800.27,2.14062 c 9.09,-0.85156 17.98,-0.3789 27.02,-0.60156 9.03,0.22266 17.93,-0.25 27.02,0.60156 C 8019.8,9.73828 8169.65,119.77 8217.84,288.328 l 825.95,2889.082 c 60.41,211.32 -61.4,431.75 -272.09,492.34" /><path
             id="path24"
             style="fill:#d9292a;fill-opacity:1;fill-rule:nonzero;stroke:none"
             d="m 9551.16,437.691 c 0,-243.671 192.66,-436.33162 436.33,-436.33162 243.71,0 436.31,192.66062 436.31,436.33162 l 0,2811.439 c 0,243.66 -192.6,436.33 -436.31,436.33 -243.67,0 -436.33,-192.67 -436.33,-436.33 l 0,-2811.439" /><path
             id="path26"
             style="fill:#d9292a;fill-opacity:1;fill-rule:nonzero;stroke:none"
             d="M 3552.62,436.332 C 3552.62,192.66 3745.28,0 3988.95,0 c 243.66,0 436.33,192.66 436.33,436.332 l 0,2811.438 c 0,243.66 -192.67,436.33 -436.33,436.33 -243.67,0 -436.33,-192.67 -436.33,-436.33 l 0,-2811.438" /><path
             id="path28"
             style="fill:#d9292a;fill-opacity:1;fill-rule:nonzero;stroke:none"
             d="m 12740.6,1854.73 1129.7,1129.62 c 161.8,161.86 161.8,417.85 0,579.71 -161.9,161.87 -417.9,161.86 -579.7,0 l -1348.5,-1348.47 0,1033.54 c 0,243.66 -192.7,436.33 -436.3,436.33 -243.7,0 -436.4,-192.67 -436.4,-436.33 l 0,-2811.439 c 0,-243.671 192.7,-436.33162 436.4,-436.33162 243.6,0 436.3,192.66062 436.3,436.33162 l 0,618.489 218.8,218.82 1116.4,-1136.039 c 160.5,-163.2696 416.5,-165.5001 579.7,-5.051 163.3,160.449 165.5,416.422 5.1,579.692 L 12740.6,1854.73" /><path
             id="path30"
             style="fill:#d9292a;fill-opacity:1;fill-rule:nonzero;stroke:none"
             d="m 1663.92,1844.19 -0.03,0.15 -791.234,0 0,1048.68 775.864,0 c 289.84,0 524.81,-234.96 524.81,-524.8 0,-284.64 -226.76,-515.81 -509.41,-524.03 z m 1393.39,530.3 c 0,703.42 -556.45,1275.37 -1252.97,1303.51 l 0.54,2.68 -1368.552,0 C 192.668,3680.68 0,3488.02 0,3244.35 L 0,442.469 C 0,198.801 192.668,6.14062 436.328,6.14062 c 243.668,0 436.328,192.66038 436.328,436.32838 l 0,625.551 932.224,0 -0.54,2.96 c 696.52,28.13 1252.97,600.08 1252.97,1303.51" /></g></g></g></g></svg>